<?xml version="1.0" encoding="UTF-8"?>
<svg id="Layer_1" data-name="Layer 1" xmlns="http://www.w3.org/2000/svg" viewBox="0 0 261 260.96">
  <defs>
    <style>
      .cls-1 {
        fill: #caf6f8;
      }

      .cls-1, .cls-2, .cls-3 {
        stroke-width: 0px;
      }

      .cls-3 {
        fill: #231f20;
      }
    </style>
  </defs>
  <ellipse class="cls-1" cx="130.5" cy="131.46" rx="130.5" ry="127"/>
  <path class="cls-3" d="m36.03,130.34s90.98,120.67,188.9,0c0,0-84.66-120.04-188.9,0Zm51.46.14c0-23.83,19.32-43.14,43.14-43.14s43.14,19.32,43.14,43.14-19.32,43.14-43.14,43.14-43.14-19.32-43.14-43.14Z"/>
  <path class="cls-3" d="m130.48,0C58.53,0,0,58.53,0,130.48s58.53,130.48,130.48,130.48,130.48-58.53,130.48-130.48S202.43,0,130.48,0Zm0,239.91c-60.34,0-109.43-49.09-109.43-109.43S70.14,21.05,130.48,21.05s109.43,49.09,109.43,109.43-49.09,109.43-109.43,109.43Z"/>
  <g id="Solid-2">
    <path class="cls-2" d="m161.02,158.49c.15-.13.19-.35.08-.52l-11.75-18.4c-2.47-3.75-6.15-6.55-10.42-7.93l-1.21-.56c-.12,3.02-2.09,5.66-4.96,6.62l20.34,20.34c2.14,2.15,5.56,2.34,7.94.45Z"/>
    <circle class="cls-2" cx="130.43" cy="130.8" r="1.72"/>
    <path class="cls-2" d="m123.94,130.8c0,3.59,2.91,6.49,6.49,6.49s6.49-2.91,6.49-6.49-2.91-6.49-6.49-6.49h0c-3.58,0-6.49,2.91-6.49,6.49Zm6.49-2.52c1.39,0,2.52,1.13,2.52,2.52s-1.13,2.52-2.52,2.52-2.52-1.13-2.52-2.52c0-1.39,1.13-2.52,2.52-2.52Z"/>
    <path class="cls-2" d="m99.85,103.11c-.15.13-.19.35-.08.52l11.75,18.4c2.47,3.75,6.15,6.55,10.42,7.93l1.21.56c.12-3.02,2.09-5.66,4.96-6.62l-20.34-20.34c-2.14-2.15-5.56-2.34-7.94-.45Z"/>
    <path class="cls-2" d="m130.43,104.96c-4.45,0-8.82,1.15-12.7,3.34-.19.1-.27.34-.17.54.1.19.34.27.54.17,0,0,.02,0,.02-.01,9.81-5.54,22.1-3.85,30.05,4.13.15.16.4.16.56.01.16-.15.16-.4.01-.56,0,0,0,0,0,0-4.84-4.88-11.43-7.62-18.3-7.6Z"/>
    <path class="cls-2" d="m112.13,148.48c-.16.15-.16.41,0,.56h0c8.2,8.23,20.89,9.97,31,4.26.19-.1.27-.34.17-.54s-.34-.27-.54-.17c0,0-.02,0-.02.01-9.81,5.54-22.1,3.85-30.05-4.13-.15-.16-.41-.16-.56,0Z"/>
    <path class="cls-2" d="m139.91,115.48c.11-.19.05-.43-.14-.54-5-2.95-11.11-3.37-16.47-1.12-.2.09-.3.32-.21.52s.32.3.52.21c5.12-2.15,10.96-1.76,15.75,1.07.19.11.43.05.54-.14Z"/>
    <path class="cls-2" d="m120.95,146.12c-.11.19-.05.43.14.54,5,2.95,11.11,3.37,16.47,1.12.2-.09.3-.32.21-.52-.09-.2-.32-.3-.52-.21h0c-5.12,2.15-10.96,1.76-15.75-1.07-.19-.11-.43-.05-.54.14Z"/>
    <path class="cls-2" d="m130.43,164.06c6.43,0,12.73-1.86,18.12-5.38.19-.12.24-.36.13-.55-.12-.19-.36-.24-.55-.13,0,0,0,0-.01,0-5.26,3.43-11.4,5.25-17.68,5.25-17.9,0-32.47-14.56-32.47-32.47,0-3.22.47-6.42,1.41-9.49.07-.21-.05-.43-.26-.5-.21-.07-.43.05-.5.26,0,0,0,0,0,0-.96,3.15-1.45,6.43-1.45,9.73,0,18.34,14.92,33.26,33.26,33.26Z"/>
    <path class="cls-2" d="m130.43,97.54c-6.43,0-12.73,1.86-18.12,5.38-.19.12-.24.36-.13.55.12.19.36.24.55.13,0,0,0,0,.01,0,5.26-3.43,11.4-5.25,17.68-5.25,17.9,0,32.47,14.56,32.47,32.47,0,3.22-.47,6.42-1.41,9.49-.07.21.05.43.26.5.21.07.43-.05.5-.26,0,0,0,0,0,0,.96-3.15,1.45-6.43,1.45-9.73,0-18.34-14.92-33.26-33.26-33.26Z"/>
  </g>
</svg>