<?xml version="1.0" encoding="UTF-8"?>
<svg id="Layer_1" data-name="Layer 1" xmlns="http://www.w3.org/2000/svg" viewBox="0 0 568.62 568.62">
  <defs>
    <style>
      .cls-1, .cls-2 {
        stroke: #fff;
        stroke-miterlimit: 10;
        stroke-width: 2px;
      }

      .cls-2 {
        fill: #231f20;
      }
    </style>
  </defs>
  <path class="cls-2" d="m189.86,284.17s90.98,120.67,188.9,0c0,0-84.66-120.04-188.9,0Zm51.46.14c0-23.83,19.32-43.14,43.14-43.14s43.14,19.32,43.14,43.14-19.32,43.14-43.14,43.14-43.14-19.32-43.14-43.14Z"/>
  <g>
    <path class="cls-2" d="m284.31,153.83c-71.95,0-130.48,58.53-130.48,130.48s58.53,130.48,130.48,130.48,130.48-58.53,130.48-130.48-58.53-130.48-130.48-130.48Zm0,239.91c-60.34,0-109.43-49.09-109.43-109.43s49.09-109.43,109.43-109.43,109.43,49.09,109.43,109.43-49.09,109.43-109.43,109.43Z"/>
    <path class="cls-2" d="m171.47,109.92s0,0,0,0l15.44,26.74c1.95,3.38,5.49,5.26,9.12,5.26,1.79,0,3.59-.45,5.25-1.41,2.2-1.27,3.77-3.22,4.6-5.43,1.06-2.84.89-6.12-.74-8.95l-30.88-53.49s0,0,0,0l-17.23-29.84c-2.91-5.03-9.34-6.76-14.38-3.85-5.03,2.91-6.76,9.34-3.85,14.38l32.67,56.58Z"/>
    <path class="cls-2" d="m42.81,157.03l56.58,32.67s0,0,0,0l26.74,15.44c1.66.96,3.47,1.41,5.25,1.41s3.61-.47,5.2-1.37c1.58-.89,2.95-2.21,3.93-3.9,2.72-4.72,1.38-10.67-2.95-13.79-.29-.21-.59-.4-.9-.59l-53.49-30.88s0,0,0,0l-29.84-17.23c-5.03-2.91-11.47-1.18-14.38,3.85-2.91,5.03-1.18,11.47,3.85,14.38Z"/>
    <path class="cls-2" d="m385.9,439.21l-4.19-7.25c-.18-.32-.38-.62-.59-.91h0c-3.12-4.33-9.07-5.67-13.79-2.95-.31.18-.62.38-.9.59-4.33,3.12-5.67,9.07-2.95,13.79l.72,1.25,14.72,25.49s0,0,0,.01l15.43,26.73s0,0,0,0l17.23,29.83c1.95,3.38,5.49,5.26,9.12,5.26,1.79,0,3.6-.45,5.25-1.41,5.03-2.91,6.76-9.34,3.85-14.38l-43.92-76.08Z"/>
    <path class="cls-2" d="m525.82,411.59l-83.34-48.11c-5.03-2.91-11.47-1.18-14.38,3.85-2.54,4.41-1.54,9.89,2.12,13.13.52.46,1.1.88,1.73,1.25l26.74,15.44s0,0,0,0l26.73,15.43s0,0,.01,0l29.83,17.23c1.66.96,3.47,1.41,5.25,1.41,3.64,0,7.18-1.89,9.12-5.26,2.91-5.03,1.18-11.47-3.85-14.38Z"/>
    <path class="cls-2" d="m557.1,273.79h-96.23c-5.09,0-9.33,3.61-10.31,8.4-.14.68-.21,1.39-.21,2.12,0,4.72,3.11,8.72,7.39,10.05.99.31,2.04.47,3.13.47h30.88s0,0,0,0h30.87s.01,0,.02,0h34.45c5.81,0,10.52-4.71,10.52-10.52s-4.71-10.52-10.52-10.52Z"/>
    <path class="cls-2" d="m284.31,118.27c5.09,0,9.33-3.61,10.31-8.4.14-.68.21-1.39.21-2.12V11.52c0-5.81-4.71-10.52-10.52-10.52s-10.52,4.71-10.52,10.52v96.22c0,.73.07,1.44.21,2.12.98,4.8,5.22,8.4,10.31,8.4Z"/>
    <path class="cls-2" d="m228.45,116.49c1.26,4.7,5.51,7.8,10.16,7.8.9,0,1.82-.12,2.73-.36,5.61-1.5,8.95-7.28,7.44-12.89l-7.99-29.83c-1.5-5.62-7.28-8.95-12.89-7.44-5.61,1.5-8.95,7.28-7.44,12.89l7.99,29.83Z"/>
    <path class="cls-2" d="m152.02,166.91c2.06,2.06,4.75,3.08,7.44,3.08s5.39-1.03,7.44-3.08c4.11-4.11,4.11-10.77,0-14.88l-21.84-21.84c-4.11-4.11-10.77-4.11-14.88,0-4.11,4.11-4.11,10.77,0,14.88l21.84,21.84Z"/>
    <path class="cls-2" d="m116.49,228.45l-29.83-7.99c-5.61-1.5-11.38,1.83-12.89,7.44-1.5,5.61,1.83,11.38,7.44,12.89l29.83,7.99c.91.24,1.83.36,2.73.36,4.65,0,8.9-3.1,10.16-7.8,1.5-5.62-1.83-11.39-7.44-12.89Z"/>
    <path class="cls-2" d="m76.87,294.84h30.88c2.91,0,5.54-1.18,7.44-3.08.04-.04.08-.09.13-.14.19-.2.38-.4.55-.61,1.07-1.3,1.84-2.86,2.19-4.57.14-.68.21-1.39.21-2.12,0-1.01-.15-1.98-.41-2.9-.02-.08-.04-.15-.06-.23-.19-.61-.44-1.2-.73-1.76-.02-.04-.04-.09-.06-.13-.11-.21-.24-.41-.37-.61-.05-.08-.1-.17-.15-.25-.18-.27-.38-.53-.58-.78,0,0-.01-.02-.02-.03-.15-.18-.31-.35-.47-.52-.07-.07-.13-.15-.2-.23-.07-.07-.15-.14-.22-.2-.17-.16-.34-.33-.52-.48,0,0-.02-.01-.03-.02-.25-.21-.51-.4-.78-.58-.08-.06-.17-.1-.25-.15-.2-.13-.4-.26-.61-.37-.04-.02-.09-.04-.13-.06-.56-.29-1.14-.54-1.76-.73-.08-.02-.15-.04-.23-.06-.92-.26-1.89-.41-2.9-.41h-61.76s0,0-.01,0H11.52c-5.81,0-10.52,4.71-10.52,10.52s4.71,10.52,10.52,10.52h65.33s0,0,.01,0Z"/>
    <path class="cls-2" d="m111.04,319.84l-29.83,7.99c-5.61,1.5-8.95,7.28-7.44,12.89,1.26,4.7,5.51,7.8,10.16,7.8.9,0,1.82-.12,2.73-.36l29.83-7.99c5.61-1.5,8.95-7.28,7.44-12.89-1.5-5.61-7.28-8.95-12.89-7.44Z"/>
    <path class="cls-2" d="m141.57,375.32c.7-2.6.4-5.47-1.05-7.99-2.91-5.03-9.34-6.76-14.38-3.85l-53.49,30.88s0,0-.01,0l-29.83,17.22c-5.03,2.91-6.76,9.34-3.85,14.38,1.95,3.38,5.49,5.26,9.12,5.26,1.79,0,3.59-.45,5.25-1.41l56.58-32.67s0,0,0,0l26.74-15.44c2.52-1.45,4.21-3.79,4.9-6.39Z"/>
    <path class="cls-2" d="m145.07,438.44l21.84-21.84c4.11-4.11,4.11-10.77,0-14.88-4.11-4.11-10.77-4.11-14.88,0l-21.84,21.84c-4.11,4.11-4.11,10.77,0,14.88,2.06,2.06,4.75,3.08,7.44,3.08s5.39-1.03,7.44-3.08Z"/>
    <path class="cls-2" d="m241.34,444.7c-5.62-1.5-11.39,1.83-12.89,7.44l-7.99,29.83c-1.5,5.61,1.83,11.39,7.44,12.89.91.24,1.83.36,2.73.36,4.65,0,8.9-3.1,10.16-7.8l7.99-29.83c1.5-5.62-1.83-11.39-7.44-12.89Z"/>
    <path class="cls-2" d="m294.62,458.75c-.03-.12-.06-.24-.09-.36-.05-.21-.1-.43-.17-.64-1.33-4.29-5.33-7.4-10.05-7.4-1.01,0-1.98.15-2.9.41-.08.02-.16.04-.23.06-.61.19-1.2.44-1.76.73-.04.02-.09.04-.13.06-.21.12-.41.24-.62.37-.08.05-.17.1-.25.15-.27.18-.53.38-.78.58,0,0-.02.01-.03.02-.18.15-.35.31-.52.48-.07.07-.15.13-.22.2-.07.07-.13.15-.2.23-.16.17-.33.34-.47.52,0,0-.01.02-.02.03-.21.25-.4.51-.58.78-.06.08-.1.17-.15.25-.13.2-.26.4-.37.61-.02.04-.04.09-.06.13-.29.56-.54,1.14-.73,1.76-.02.08-.04.15-.06.23-.26.92-.41,1.89-.41,2.9v61.76s0,0,0,0v34.45c0,5.81,4.71,10.52,10.52,10.52s10.52-4.71,10.52-10.52v-72.84s0-23.38,0-23.38c0-.73-.07-1.44-.21-2.12Z"/>
    <path class="cls-2" d="m340.18,452.14c-1.5-5.62-7.28-8.95-12.89-7.44-5.61,1.5-8.95,7.27-7.44,12.89l7.99,29.83c1.26,4.7,5.51,7.8,10.16,7.8.9,0,1.82-.12,2.73-.36,5.61-1.5,8.95-7.27,7.44-12.89l-7.99-29.83Z"/>
    <path class="cls-2" d="m416.6,401.72c-4.11-4.11-10.77-4.11-14.88,0-4.11,4.11-4.11,10.77,0,14.88l21.84,21.84c2.05,2.06,4.75,3.08,7.44,3.08s5.39-1.03,7.44-3.08c4.11-4.11,4.11-10.77,0-14.88l-21.84-21.84Z"/>
    <path class="cls-2" d="m452.14,340.18l29.83,7.99c.91.24,1.83.36,2.73.36,4.65,0,8.9-3.1,10.16-7.8,1.5-5.61-1.83-11.39-7.44-12.89l-29.83-7.99c-5.62-1.5-11.39,1.83-12.89,7.44-1.5,5.61,1.83,11.39,7.44,12.89Z"/>
    <path class="cls-2" d="m457.58,248.78l29.83-7.99c5.61-1.5,8.95-7.27,7.44-12.89-1.5-5.61-7.28-8.95-12.89-7.44l-29.83,7.99c-5.61,1.5-8.95,7.28-7.44,12.89,1.26,4.7,5.51,7.8,10.16,7.8.9,0,1.82-.12,2.73-.36Z"/>
    <path class="cls-2" d="m423.55,130.19l-21.83,21.84c-4.11,4.11-4.11,10.77,0,14.88,2.05,2.05,4.75,3.08,7.44,3.08s5.39-1.03,7.44-3.08l21.83-21.84c4.11-4.11,4.11-10.77,0-14.88-4.11-4.11-10.77-4.11-14.88,0Z"/>
    <path class="cls-2" d="m327.29,123.93c.91.24,1.83.36,2.73.36,4.65,0,8.9-3.1,10.16-7.8l7.99-29.83c1.5-5.61-1.83-11.39-7.44-12.89-5.62-1.5-11.39,1.83-12.89,7.44l-7.99,29.83c-1.5,5.61,1.83,11.39,7.44,12.89Z"/>
    <path class="cls-2" d="m202.2,428.69c-.29-.21-.59-.4-.9-.59-5.03-2.91-11.47-1.18-14.38,3.85l-30.88,53.49s0,0,0,.01l-17.23,29.84c-2.91,5.03-1.18,11.47,3.85,14.38,1.66.96,3.47,1.41,5.25,1.41,3.64,0,7.18-1.89,9.12-5.26l32.67-56.58s0,0,0,0l15.44-26.74c.91-1.57,1.36-3.28,1.41-4.98.09-3.39-1.47-6.73-4.36-8.81Z"/>
    <path class="cls-2" d="m431.05,187.5c-4.33,3.12-5.67,9.07-2.95,13.79,1.95,3.38,5.49,5.26,9.12,5.26.45,0,.9-.03,1.34-.09.19-.02.37-.07.56-.11.26-.05.52-.08.77-.15.88-.23,1.75-.59,2.58-1.06l26.74-15.44s0,0,0,0l26.74-15.44s0,0,0,0l29.84-17.23c5.03-2.91,6.76-9.34,3.85-14.38-2.91-5.03-9.34-6.76-14.38-3.85l-83.33,48.11c-.31.18-.62.38-.9.59Z"/>
    <path class="cls-2" d="m364.87,138.56c.46.5.98.96,1.55,1.38.29.21.59.4.9.58,1.66.96,3.47,1.41,5.25,1.41,2.27,0,4.51-.74,6.34-2.12,1.1-.83,2.05-1.88,2.78-3.15l15.44-26.74,15.44-26.74s0,0,0-.01l17.23-29.84c2.91-5.03,1.18-11.47-3.85-14.38-5.03-2.91-11.47-1.18-14.38,3.85l-48.11,83.33c-2.36,4.09-1.67,9.11,1.38,12.4,0,0,.01,0,.01.01Z"/>
  </g>
  <g id="Solid-2">
    <path class="cls-1" d="m314.85,312.32c.15-.13.19-.35.08-.52l-11.75-18.4c-2.47-3.75-6.15-6.55-10.42-7.93l-1.21-.56c-.12,3.02-2.09,5.66-4.96,6.62l20.34,20.34c2.14,2.15,5.56,2.34,7.94.45Z"/>
    <circle class="cls-1" cx="284.27" cy="284.63" r="1.72"/>
    <path class="cls-1" d="m277.77,284.63c0,3.59,2.91,6.49,6.49,6.49s6.49-2.91,6.49-6.49-2.91-6.49-6.49-6.49h0c-3.58,0-6.49,2.91-6.49,6.49Zm6.49-2.52c1.39,0,2.52,1.13,2.52,2.52s-1.13,2.52-2.52,2.52-2.52-1.13-2.52-2.52c0-1.39,1.13-2.52,2.52-2.52Z"/>
    <path class="cls-1" d="m253.68,256.94c-.15.13-.19.35-.08.52l11.75,18.4c2.47,3.75,6.15,6.55,10.42,7.93l1.21.56c.12-3.02,2.09-5.66,4.96-6.62l-20.34-20.34c-2.14-2.15-5.56-2.34-7.94-.45Z"/>
    <path class="cls-1" d="m284.27,258.79c-4.45,0-8.82,1.15-12.7,3.34-.19.1-.27.34-.17.54.1.19.34.27.54.17,0,0,.02,0,.02-.01,9.81-5.54,22.1-3.85,30.05,4.13.15.16.4.16.56.01.16-.15.16-.4.01-.56,0,0,0,0,0,0-4.84-4.88-11.43-7.62-18.3-7.6Z"/>
    <path class="cls-1" d="m265.96,302.31c-.16.15-.16.41,0,.56h0c8.2,8.23,20.89,9.97,31,4.26.19-.1.27-.34.17-.54s-.34-.27-.54-.17c0,0-.02,0-.02.01-9.81,5.54-22.1,3.85-30.05-4.13-.15-.16-.41-.16-.56,0Z"/>
    <path class="cls-1" d="m293.75,269.31c.11-.19.05-.43-.14-.54-5-2.95-11.11-3.37-16.47-1.12-.2.09-.3.32-.21.52s.32.3.52.21c5.12-2.15,10.96-1.76,15.75,1.07.19.11.43.05.54-.14Z"/>
    <path class="cls-1" d="m274.79,299.96c-.11.19-.05.43.14.54,5,2.95,11.11,3.37,16.47,1.12.2-.09.3-.32.21-.52-.09-.2-.32-.3-.52-.21h0c-5.12,2.15-10.96,1.76-15.75-1.07-.19-.11-.43-.05-.54.14Z"/>
    <path class="cls-1" d="m284.27,317.89c6.43,0,12.73-1.86,18.12-5.38.19-.12.24-.36.13-.55-.12-.19-.36-.24-.55-.13,0,0,0,0-.01,0-5.26,3.43-11.4,5.25-17.68,5.25-17.9,0-32.47-14.56-32.47-32.47,0-3.22.47-6.42,1.41-9.49.07-.21-.05-.43-.26-.5-.21-.07-.43.05-.5.26,0,0,0,0,0,0-.96,3.15-1.45,6.43-1.45,9.73,0,18.34,14.92,33.26,33.26,33.26Z"/>
    <path class="cls-1" d="m284.27,251.37c-6.43,0-12.73,1.86-18.12,5.38-.19.12-.24.36-.13.55.12.19.36.24.55.13,0,0,0,0,.01,0,5.26-3.43,11.4-5.25,17.68-5.25,17.9,0,32.47,14.56,32.47,32.47,0,3.22-.47,6.42-1.41,9.49-.07.21.05.43.26.5.21.07.43-.05.5-.26,0,0,0,0,0,0,.96-3.15,1.45-6.43,1.45-9.73,0-18.34-14.92-33.26-33.26-33.26Z"/>
  </g>
</svg>